# xmcd
#
# Track frame offsets:
#	150
#	13407
#	26970
#	40227
#	50802
#	66288
#	79677
#	94000
#	106497
#	117232
#	134689
#	150286
#	161550
#	173671
#	187339
#	201132
#	213595
#	226580
#	241376
#	254117
#
# Disc length: 3565
#
# Revision: 1
# Processed by: cddbd v1.5.1PL0 Copyright (c) Steve Scherf et al.
# Submitted via: CDex 1.51
# Normalized: r0:TDELIM( - )
#
DISCID=230deb14
DTITLE=Diverse Interpreten - 20 Great Blues of the 50's and 60's
DYEAR=1900
DGENRE=Blues
TTITLE0=LIGHTNING HOPKINS - Rolling And Rolling
TTITLE1=BOBBY BLAND - Drifting
TTITLE2=ROOSEVELT SYKES - Gone With The Wind
TTITLE3=BIG MAMA THORNTON - Me And My Chauffeur
TTITLE4=JIMMY WITHERSPOON - No Rollin' Blues
TTITLE5=SONNY BOY WILLIAMSON - No Nights By Myself
TTITLE6=JOHN LEE HOOKER - Cool Little Car
TTITLE7=ELMORE JAMES - Dark And Dreary
TTITLE8=IKE TURNER - I Ain't Drunk
TTITLE9=HOWLING WOLF - Crying At Daybreak
TTITLE10=JOHNNY 'GUITAR' WATSON - 3 Hours Past Midnight
TTITLE11=LOWELL FULSOM - Talkin' Woman
TTITLE12=LITTLE WILLIE LITTLEFIELD - The Moon Is Rising
TTITLE13=JOHN LEE HOOKER - Tease Me Baby
TTITLE14=PEE WEE CRAYTON - Dedicating The Blues
TTITLE15=B.B. KING - 10 Long Years
TTITLE16=JIMMY McCRACKLIN - Beer Drinking Woman
TTITLE17=ELMORE JAMES - Sunnyland
TTITLE18=FLOYD DIXON - Cowtown
TTITLE19=JOE HILL LOUIS - Heartache Baby
EXTD=
EXTT0=
EXTT1=
EXTT2=
EXTT3=
EXTT4=
EXTT5=
EXTT6=
EXTT7=
EXTT8=
EXTT9=
EXTT10=
EXTT11=
EXTT12=
EXTT13=
EXTT14=
EXTT15=
EXTT16=
EXTT17=
EXTT18=
EXTT19=
PLAYORDER=
